HIERARCHY
ROOT Hips
{
  OFFSET -1.56614 0.00 -1.85809
  CHANNELS 6 Xposition Yposition Zposition Zrotation Xrotation Yrotation
  JOINT LHipJoint
  {
    OFFSET 0 0 0
    CHANNELS 3 Zrotation Xrotation Yrotation
    JOINT LeftUpLeg
    {
      OFFSET 1.8 -1.4 0.085
      CHANNELS 3 Zrotation Xrotation Yrotation
      JOINT LeftLeg
      {
        OFFSET 2.215 -6 0
        CHANNELS 3 Zrotation Xrotation Yrotation
        JOINT LeftFoot
        {
          OFFSET 2.5 -6.9 0
          CHANNELS 3 Zrotation Xrotation Yrotation
          JOINT LeftToeBase
          {
            OFFSET 0.2 -0.5 1.95
            CHANNELS 3 Zrotation Xrotation Yrotation
            End Site
            {
              OFFSET 0 0 1
            }
          }
        }
      }
    }
  }
  JOINT RHipJoint
  {
    OFFSET 0 0 0
    CHANNELS 3 Zrotation Xrotation Yrotation
    JOINT RightUpLeg
    {
      OFFSET -1.8 -1.4 0.085
      CHANNELS 3 Zrotation Xrotation Yrotation
      JOINT RightLeg
      {
        OFFSET -2.215 -6 0
        CHANNELS 3 Zrotation Xrotation Yrotation
        JOINT RightFoot
        {
          OFFSET -2.5 -6.9 0
          CHANNELS 3 Zrotation Xrotation Yrotation
          JOINT RightToeBase
          {
            OFFSET -0.2 -0.5 1.95
            CHANNELS 3 Zrotation Xrotation Yrotation
            End Site
            {
              OFFSET 0 0 1
            }
          }
        }
      }
    }
  }
  JOINT LowerBack
  {
    OFFSET 0 0 0
    CHANNELS 3 Zrotation Xrotation Yrotation
    JOINT Spine
    {
      OFFSET -0.087 1.94 -0.2889
      CHANNELS 3 Zrotation Xrotation Yrotation
      JOINT Spine1
      {
        OFFSET 0 1.95 0.06
        CHANNELS 3 Zrotation Xrotation Yrotation
        JOINT Neck
        {
          OFFSET 0 0 0
          CHANNELS 3 Zrotation Xrotation Yrotation
          JOINT Neck1
          {
            OFFSET 0 1.6 0.34
            CHANNELS 3 Zrotation Xrotation Yrotation
            JOINT Head
            {
              OFFSET 0 1.667 -0.24
              CHANNELS 3 Zrotation Xrotation Yrotation
              End Site
              {
                OFFSET 0 1.686 -0.12
              }
            }
          }
        }
        JOINT LeftShoulder
        {
          OFFSET 0 0 0
          CHANNELS 3 Zrotation Xrotation Yrotation
          JOINT LeftArm
          {
            OFFSET 2.7 1.55 -0.73
            CHANNELS 3 Zrotation Xrotation Yrotation
            JOINT LeftForeArm
            {
              OFFSET 5.45 0 0
              CHANNELS 3 Zrotation Xrotation Yrotation
              JOINT LeftHand
              {
                OFFSET 3.45 0 0
                CHANNELS 3 Zrotation Xrotation Yrotation
                JOINT LeftFingerBase
                {
                  OFFSET 0 0 0
                  CHANNELS 3 Zrotation Xrotation Yrotation
                  JOINT LeftHandIndex1
                  {
                    OFFSET 0.75 0 0
                    CHANNELS 3 Zrotation Xrotation Yrotation
                    End Site
                    {
                      OFFSET 0.6 0 0
                    }
                  }
                }
                JOINT LThumb
                {
                  OFFSET 0 0 0
                  CHANNELS 3 Zrotation Xrotation Yrotation
                  End Site
                  {
                    OFFSET 0.59 0 0.59
                  }
                }
              }
            }
          }
        }
        JOINT RightShoulder
        {
          OFFSET 0 0 0
          CHANNELS 3 Zrotation Xrotation Yrotation
          JOINT RightArm
          {
            OFFSET -2.7 1.55 -0.73
            CHANNELS 3 Zrotation Xrotation Yrotation
            JOINT RightForeArm
            {
              OFFSET -5.45 0 0
              CHANNELS 3 Zrotation Xrotation Yrotation
              JOINT RightHand
              {
                OFFSET -3.45 0 0
                CHANNELS 3 Zrotation Xrotation Yrotation
                JOINT RightFingerBase
                {
                  OFFSET 0 0 0
                  CHANNELS 3 Zrotation Xrotation Yrotation
                  JOINT RightHandIndex1
                  {
                    OFFSET -0.75 0 0
                    CHANNELS 3 Zrotation Xrotation Yrotation
                    End Site
                    {
                      OFFSET -0.6 0 0
                    }
                  }
                }
                JOINT RThumb
                {
                  OFFSET 0 0 0
                  CHANNELS 3 Zrotation Xrotation Yrotation
                  End Site
                  {
                    OFFSET -0.59 0 0.59
                  }
                }
              }
            }
          }
        }
      }
    }
  }
}
MOTION
Frames:	11
Frame Time:	0.00833333
-0.229405 18.2267 -3.27734 -0.00990513 0.00256611 -8.76641e-006 6.27839e-019 0 3.03321e-021 -18.7725 -4.8526 1.81169 0.823616 7.8761 3.46125 -1.07294 -2.96011 -5.38377 -4.75552e-015 0 -0 6.27839e-019 0 3.03321e-021 20.988 -7.11911 0.0913937 -1.10446 9.07716 -15.78 2.41349 -1.34651 15.8866 -2.68434e-015 7.76503e-019 -3.88251e-019 6.27839e-019 0 3.03321e-021 -0.00429809 -0.00215984 -0.000655851 0.00289658 0.00118706 -0.00106392 0.00111397 -16.0037 -0.000479346 0.00137266 20.9963 -0.000842327 0.00137218 11.0051 -0.000629915 0.308847 0.000292982 3.44787 -33.4298 -44.4421 -34.5142 1.18715 51.221 0.0158164 3.93219 -2.26387 -3.31005 -8.49021e-007 2.87845e-007 -9.86655e-007 -1.13558e-007 1.71158e-007 1.02801e-006 5.96354e-016 -1.19271e-015 -6.36111e-015 -0.347477 -0.00377451 -3.50524 36.9754 -38.9179 33.1681 1.48748 26.8894 7.33942 7.27744 -2.63067 -13.2812 5.10421e-006 -1.181e-006 1.9673e-006 -1.59028e-015 -3.18055e-015 -0 3.97569e-015 -3.18055e-015 -0 
-0.230966 18.2271 -3.27705 -0.0099053 0.0151592 0.000626415 -2.41095e-018 0 -0 -18.7654 -4.86567 1.80243 0.827406 7.86039 3.4997 -1.11774 -2.9353 -5.40104 -1.13381e-015 -1.55301e-018 3.10601e-018 -2.41095e-018 0 -0 21.0075 -7.17352 0.136975 -1.09428 9.15383 -15.7285 2.33158 -1.37354 15.7824 -5.12862e-015 -6.21202e-018 3.10601e-018 -2.41095e-018 0 -0 -0.0205746 -0.0152576 -0.00340308 0.0133741 0.00921973 -0.00526764 0.0051755 -16.0204 -0.00252437 0.00649093 20.9796 -0.00423146 0.00709501 11.0302 -0.00408864 0.304664 0.000292985 3.44065 -33.4384 -44.4791 -34.5355 1.22139 51.1919 0.0158063 3.90879 -2.25866 -3.35881 -8.49021e-007 2.87845e-007 -9.86655e-007 -1.13558e-007 1.71158e-007 1.02801e-006 5.96354e-016 3.97569e-016 -0 -0.347478 -0.00377448 -3.51219 37.0028 -38.9317 33.1851 1.42863 26.8952 7.35932 7.28097 -2.6375 -13.3122 5.10421e-006 -1.181e-006 1.9673e-006 1.76556e-031 3.18055e-015 -3.18055e-015 -7.95139e-016 -4.77083e-015 3.18055e-015 
-0.232548 18.2274 -3.27675 -0.00990581 0.0281249 0.00136884 -2.7553e-018 0 -3.88251e-019 -18.7584 -4.87897 1.79276 0.831432 7.84412 3.53892 -1.16304 -2.91004 -5.41875 2.77804e-015 2.32951e-018 -0 -2.7553e-018 0 -3.88251e-019 21.0277 -7.23021 0.183828 -1.08399 9.23353 -15.6769 2.24622 -1.40075 15.6766 -7.39895e-015 -1.2424e-017 -1.2424e-017 -2.7553e-018 0 -3.88251e-019 -0.0367058 -0.0290686 -0.00617013 0.0236753 0.0177779 -0.00946304 0.0091728 -16.0372 -0.00459013 0.0115477 20.9628 -0.00762308 0.0128583 11.056 -0.00769819 0.300392 0.000292987 3.43327 -33.4478 -44.5164 -34.5574 1.25633 51.1619 0.0157961 3.88445 -2.25328 -3.40902 -8.49021e-007 2.87845e-007 -9.86655e-007 -1.13558e-007 1.71158e-007 1.02801e-006 -1.98785e-016 0 -6.36111e-015 -0.347478 -0.00377445 -3.51915 37.0308 -38.9453 33.2022 1.36903 26.901 7.37965 7.28438 -2.64446 -13.3439 5.10421e-006 -1.181e-006 1.9673e-006 8.82781e-032 -1.59028e-015 3.18055e-015 5.56597e-015 0 -0 
-0.233915 18.2277 -3.2765 -0.00990574 0.0369922 0.000931622 9.60391e-019 0 3.88251e-019 -18.7507 -4.88975 1.78747 0.833114 7.83398 3.56965 -1.20268 -2.88974 -5.43162 -5.86017e-015 0 -1.2424e-017 9.60391e-019 0 3.88251e-019 21.0423 -7.26172 0.216831 -1.07651 9.28018 -15.627 2.19753 -1.42634 15.5877 -2.80504e-015 0 -0 9.60391e-019 0 3.88251e-019 -0.0544503 -0.035033 -0.00871923 0.0359293 0.0205555 -0.0137499 0.0138621 -16.0512 -0.00643182 0.017256 20.9488 -0.0109784 0.0182124 11.0736 -0.00965554 0.297104 0.000292989 3.42756 -33.4483 -44.5492 -34.5712 1.28355 51.1409 0.0157889 3.87052 -2.2498 -3.44318 -8.49021e-007 2.87845e-007 -9.86655e-007 -1.13558e-007 1.71158e-007 1.02801e-006 -1.98785e-016 1.98785e-015 -0 -0.347478 -0.00377442 -3.52593 37.0531 -38.9603 33.219 1.31752 26.9074 7.39519 7.28907 -2.65002 -13.3683 5.10421e-006 -1.181e-006 1.9673e-006 -7.95139e-016 1.59028e-015 -3.18055e-015 2.38542e-015 -3.18055e-015 6.36111e-015 
-0.234839 18.2282 -3.27635 -0.00990388 0.0371556 -0.00192673 5.38206e-019 0 -0 -18.7411 -4.89525 1.79149 0.829745 7.83683 3.58253 -1.23056 -2.87983 -5.43435 1.53841e-015 6.21202e-018 -1.2424e-017 5.38206e-019 0 -0 21.0448 -7.23926 0.220351 -1.0747 9.25601 -15.5797 2.22741 -1.4489 15.5337 2.2243e-015 6.21202e-018 1.2424e-017 5.38206e-019 0 -0 -0.0755815 -0.0244309 -0.0107982 0.0523171 0.0111349 -0.0182229 0.0199583 -16.0591 -0.00779519 0.0242815 20.9409 -0.0142368 0.0228581 11.0737 -0.00818635 0.295872 0.000292989 3.42535 -33.4303 -44.5725 -34.5677 1.29448 51.1387 0.0157881 3.87862 -2.25035 -3.44337 -8.49021e-007 2.87845e-007 -9.86655e-007 -1.13558e-007 1.71158e-007 1.02801e-006 5.96354e-016 -1.19271e-015 -6.36111e-015 -0.347479 -0.0037744 -3.53237 37.0635 -38.9779 33.2353 1.28286 26.915 7.4007 7.29643 -2.65264 -13.3772 5.10421e-006 -1.181e-006 1.9673e-006 3.18055e-015 -4.77083e-015 -9.54166e-015 1.59028e-015 -1.59028e-015 -0 
-0.235252 18.2289 -3.27629 -0.0099021 0.0245667 -0.00708242 3.31379e-019 -3.10601e-018 -3.10601e-018 -18.7279 -4.89395 1.80954 0.81849 7.85884 3.57213 -1.24463 -2.88313 -5.42451 5.68502e-015 -3.10601e-018 -0 3.31379e-019 -3.10601e-018 -3.10601e-018 21.0299 -7.13076 0.179908 -1.08055 9.11999 -15.5271 2.38097 -1.47385 15.5176 -7.72232e-016 -1.2424e-017 6.21202e-018 3.31379e-019 -3.10601e-018 -3.10601e-018 -0.101131 0.00898908 -0.0120803 0.0746098 -0.0149967 -0.0228472 0.0271584 -16.0574 -0.00842935 0.0322058 20.9426 -0.017041 0.0289441 11.0469 -0.00293699 0.297148 0.000292989 3.42741 -33.3895 -44.5829 -34.5424 1.28287 51.1585 0.0157949 3.91818 -2.25654 -3.39542 -8.49021e-007 2.87845e-007 -9.86655e-007 -1.13558e-007 1.71158e-007 1.02801e-006 1.98785e-016 -3.97569e-016 -3.18055e-015 -0.347479 -0.00377437 -3.53907 37.0604 -38.998 33.2516 1.26761 26.9208 7.39395 7.30676 -2.65088 -13.3635 5.10421e-006 -1.181e-006 1.9673e-006 4.77083e-015 -6.36111e-015 3.18055e-015 -0 -3.18055e-015 -0 
-0.235338 18.2297 -3.27631 -0.00990384 0.00530745 -0.0139787 -4.63323e-019 0 -3.10601e-018 -18.7133 -4.88869 1.83476 0.80334 7.89083 3.54831 -1.25 -2.89422 -5.40712 3.69436e-015 0 -1.2424e-017 -4.63323e-019 0 -3.10601e-018 21.006 -6.98026 0.116837 -1.09029 8.92886 -15.476 2.59558 -1.4971 15.527 -5.49519e-015 -2.48481e-017 -0 -4.63323e-019 0 -3.10601e-018 -0.129225 0.0549714 -0.0129921 0.100051 -0.0503699 -0.0276029 0.0353494 -16.0509 -0.00869415 0.0410466 20.949 -0.0197428 0.0347252 11.0067 0.0048224 0.299953 0.000292987 3.43207 -33.3349 -44.5861 -34.5041 1.25889 51.1922 0.0158065 3.97456 -2.2658 -3.32158 -8.49021e-007 2.87845e-007 -9.86655e-007 -1.13558e-007 1.71158e-007 1.02801e-006 -9.93923e-016 7.95139e-016 -3.18055e-015 -0.34748 -0.00377434 -3.54558 37.0487 -39.0201 33.2676 1.2648 26.927 7.37974 7.31905 -2.64685 -13.3379 5.10421e-006 -1.181e-006 1.9673e-006 5.56597e-015 -1.59028e-015 -6.36111e-015 3.97569e-015 4.77083e-015 3.18055e-015 
-0.235298 18.2304 -3.27636 -0.00990985 -0.0121136 -0.0223186 2.48269e-018 0 -0 -18.7007 -4.88305 1.8574 0.790033 7.91992 3.52378 -1.25251 -2.90627 -5.38829 -3.29762e-015 1.2424e-017 -1.2424e-017 2.48269e-018 0 -0 20.9849 -6.85207 0.0612311 -1.09929 8.76522 -15.4392 2.78036 -1.5103 15.5498 -6.47263e-016 0 -1.86361e-017 2.48269e-018 0 -0 -0.157449 0.099729 -0.0141724 0.124845 -0.0849825 -0.0325093 0.0447427 -16.0467 -0.00910396 0.0512256 20.9533 -0.0229547 0.0367945 10.9719 0.013795 0.303117 0.000292986 3.43733 -33.2772 -44.5894 -34.4638 1.23627 51.2305 0.0158196 4.02761 -2.27462 -3.25233 -8.49021e-007 2.87845e-007 -9.86655e-007 -1.13558e-007 1.71158e-007 1.02801e-006 -1.98785e-016 0 3.18055e-015 -0.34748 -0.00377432 -3.55099 37.0334 -39.0437 33.2827 1.26667 26.9388 7.36381 7.33226 -2.64354 -13.3153 5.10421e-006 -1.181e-006 1.9673e-006 3.97569e-015 -6.36111e-015 -3.18055e-015 1.59028e-015 -1.59028e-015 -0 
-0.235323 18.2307 -3.27641 -0.00991588 -0.0193411 -0.0318334 -2.79056e-018 -6.21202e-018 1.2424e-017 -18.6935 -4.88047 1.86791 0.784202 7.9334 3.51087 -1.25786 -2.91258 -5.37405 1.41609e-015 0 -2.48481e-017 -2.79056e-018 -6.21202e-018 1.2424e-017 20.9776 -6.80957 0.0425248 -1.10332 8.71032 -15.4297 2.84568 -1.50483 15.5747 -5.85895e-016 4.96962e-017 6.21202e-018 -2.79056e-018 -6.21202e-018 1.2424e-017 -0.183454 0.129764 -0.0162687 0.145218 -0.109076 -0.0375959 0.0556727 -16.0514 -0.0101766 0.0632959 20.9486 -0.0273285 0.031565 10.9613 0.0228328 0.305527 0.000292984 3.4413 -33.2269 -44.6002 -34.4321 1.22845 51.2648 0.0158314 4.05786 -2.27963 -3.21729 -8.49021e-007 2.87845e-007 -9.86655e-007 -1.13558e-007 1.71158e-007 1.02801e-006 5.96354e-016 7.95139e-016 9.54166e-015 -0.34748 -0.00377431 -3.5544 37.0192 -39.0689 33.2963 1.26613 26.961 7.35158 7.34554 -2.64389 -13.3102 5.10421e-006 -1.181e-006 1.9673e-006 1.59028e-015 0 3.18055e-015 2.38542e-015 -4.77083e-015 -0 
-0.235347 18.2305 -3.27645 -0.0099163 -0.0149462 -0.0428204 3.03473e-018 -6.21202e-018 1.2424e-017 -18.6926 -4.88046 1.86452 0.787386 7.92824 3.51007 -1.2666 -2.91156 -5.36545 3.3124e-015 6.21202e-018 -2.48481e-017 3.03473e-018 -6.21202e-018 1.2424e-017 20.9853 -6.86635 0.0649095 -1.10209 8.77927 -15.458 2.77132 -1.47244 15.6141 -1.15638e-015 4.96962e-017 2.95071e-017 3.03473e-018 -6.21202e-018 1.2424e-017 -0.207174 0.14339 -0.0196997 0.159776 -0.121931 -0.0430278 0.0701211 -16.0663 -0.0121932 0.0794767 20.9337 -0.0337487 0.0149649 10.9774 0.0336 0.307593 0.000292983 3.44472 -33.1809 -44.619 -34.4082 1.23699 51.3026 0.0158444 4.0672 -2.28116 -3.21713 -8.49021e-007 2.87845e-007 -9.86655e-007 -1.13558e-007 1.71158e-007 1.02801e-006 3.97569e-016 1.19271e-015 3.18055e-015 -0.34748 -0.0037743 -3.55564 36.9998 -39.0995 33.306 1.2697 26.9984 7.34042 7.36118 -2.6486 -13.3248 5.10421e-006 -1.181e-006 1.9673e-006 3.97569e-015 1.59028e-015 -6.36111e-015 7.95139e-016 0 3.18055e-015 
-0.235327 18.2301 -3.2765 -0.00990965 -0.00469147 -0.0551591 -7.23421e-019 0 -1.2424e-017 -18.6954 -4.8816 1.85395 0.795167 7.91397 3.51431 -1.27518 -2.90822 -5.35832 -2.63801e-015 6.21202e-018 -0 -7.23421e-019 0 -1.2424e-017 21.0009 -6.97625 0.108821 -1.09817 8.91496 -15.5077 2.62336 -1.42513 15.663 -4.70657e-015 -2.48481e-017 -6.21202e-018 -7.23421e-019 0 -1.2424e-017 -0.229931 0.149361 -0.0237444 0.171793 -0.129432 -0.048642 0.0861406 -16.0867 -0.0146255 0.0974875 20.9133 -0.0410748 -0.00747299 11.0081 0.0452349 0.309547 0.000292982 3.44794 -33.1363 -44.6414 -34.3871 1.25327 51.3418 0.015858 4.06439 -2.28074 -3.23534 -8.49021e-007 2.87845e-007 -9.86655e-007 -1.13558e-007 1.71158e-007 1.02801e-006 -0 -3.97569e-016 -0 -0.34748 -0.0037743 -3.55534 36.9783 -39.132 33.3143 1.27539 27.0442 7.32976 7.37759 -2.65547 -13.3493 5.10421e-006 -1.181e-006 1.9673e-006 7.95139e-016 0 -6.36111e-015 3.18055e-015 -1.59028e-015 3.18055e-015 
